<svg width="113" height="68" viewBox="0 0 113 68" fill="none" xmlns="http://www.w3.org/2000/svg">
<g clip-path="url(#clip0_2284_39303)">
<path fill-rule="evenodd" clip-rule="evenodd" d="M61.96 29.958C61.5205 25.583 56.9113 14.4929 40.5077 12.8482C24.0984 11.203 18.1548 27.1594 17.4187 34.3721C16.2959 40.2859 16.2531 50.5196 24.8675 65.1962C30.0536 74.0319 39.0207 82.9545 45.108 89.0115C47.0458 90.9397 48.6917 92.5774 49.8309 93.8296L49.8306 93.8316C49.8311 93.8313 49.8316 93.8311 49.8321 93.8308C49.8324 93.8312 49.8328 93.8316 49.8331 93.832L49.8335 93.8301C51.3524 93.0827 53.4841 92.1622 55.9937 91.0785C63.8775 87.6742 75.491 82.6594 83.5548 76.3395C96.9492 65.8419 100.66 56.3047 101.783 50.3909C103.742 43.4104 104.061 26.386 88.1905 21.9021C72.3258 17.4198 63.9725 26.0485 61.96 29.958Z" fill="url(#paint0_linear_2284_39303)"/>
</g>
<defs>
<linearGradient id="paint0_linear_2284_39303" x1="62.1599" y1="25.9599" x2="44.4654" y2="87.2011" gradientUnits="userSpaceOnUse">
<stop stop-color="#F9BFC6"/>
<stop offset="1" stop-color="#F9E2E2"/>
</linearGradient>
<clipPath id="clip0_2284_39303">
<rect width="113" height="68" fill="white"/>
</clipPath>
</defs>
</svg>
