<svg width="32" height="32" viewBox="0 0 32 32" fill="none" xmlns="http://www.w3.org/2000/svg">
<rect width="32" height="32" rx="16" fill="#F8F8F8"/>
<path fill-rule="evenodd" clip-rule="evenodd" d="M16.0012 24.8012C20.8613 24.8012 24.8012 20.8613 24.8012 16.0012C24.8012 11.1411 20.8613 7.20117 16.0012 7.20117C11.1411 7.20117 7.20117 11.1411 7.20117 16.0012C7.20117 20.8613 11.1411 24.8012 16.0012 24.8012ZM16.0018 19.4442C17.9036 19.4442 19.4453 17.9025 19.4453 16.0007C19.4453 14.0989 17.9036 12.5572 16.0018 12.5572C14.1 12.5572 12.5583 14.0989 12.5583 16.0007C12.5583 17.9025 14.1 19.4442 16.0018 19.4442Z" fill="#7797EA"/>
<path d="M24.3887 16.0012C24.3887 20.6335 20.6335 24.3887 16.0012 24.3887V25.2137C21.0891 25.2137 25.2137 21.0891 25.2137 16.0012H24.3887ZM16.0012 7.61367C20.6335 7.61367 24.3887 11.3689 24.3887 16.0012H25.2137C25.2137 10.9132 21.0891 6.78867 16.0012 6.78867V7.61367ZM7.61367 16.0012C7.61367 11.3689 11.3689 7.61367 16.0012 7.61367V6.78867C10.9132 6.78867 6.78867 10.9132 6.78867 16.0012H7.61367ZM16.0012 24.3887C11.3689 24.3887 7.61367 20.6335 7.61367 16.0012H6.78867C6.78867 21.0891 10.9132 25.2137 16.0012 25.2137V24.3887ZM19.0328 16.0007C19.0328 17.6747 17.6757 19.0317 16.0018 19.0317V19.8567C18.1314 19.8567 19.8578 18.1303 19.8578 16.0007H19.0328ZM16.0018 12.9697C17.6757 12.9697 19.0328 14.3267 19.0328 16.0007H19.8578C19.8578 13.8711 18.1314 12.1447 16.0018 12.1447V12.9697ZM12.9708 16.0007C12.9708 14.3267 14.3278 12.9697 16.0018 12.9697V12.1447C13.8722 12.1447 12.1458 13.8711 12.1458 16.0007H12.9708ZM16.0018 19.0317C14.3278 19.0317 12.9708 17.6747 12.9708 16.0007H12.1458C12.1458 18.1303 13.8722 19.8567 16.0018 19.8567V19.0317Z" fill="#6280CD"/>
</svg>
