<svg width="113" height="68" viewBox="0 0 113 68" fill="none" xmlns="http://www.w3.org/2000/svg">
<g clip-path="url(#clip0_2284_39300)">
<path fill-rule="evenodd" clip-rule="evenodd" d="M56.6343 55.7616C56.6549 55.7504 56.6755 55.7392 56.6961 55.7279C56.7358 55.7798 56.7756 55.8316 56.8157 55.8832C56.7596 55.9135 56.7036 55.944 56.6477 55.9746C56.608 55.9227 56.5681 55.8709 56.5281 55.8193C56.5636 55.8001 56.599 55.7809 56.6343 55.7616ZM48.1687 96.0801C42.3135 99.2899 35.2236 100.496 28.0509 98.9803C12.5783 95.7113 2.5798 81.0174 5.71868 66.1606C7.41603 58.1268 12.6073 51.6904 19.4641 47.9899C14.6893 41.8319 12.5446 33.845 14.2421 25.8105C17.381 10.9537 32.4686 1.55984 47.9412 4.82883C55.1165 6.34478 61.1145 10.3177 65.1711 15.6245C71.027 12.4131 78.1185 11.2064 85.2928 12.7221C100.765 15.9911 110.764 30.685 107.625 45.5418C105.927 53.5772 100.734 60.0145 93.8757 63.7147C98.6505 69.8727 100.795 77.8596 99.0977 85.8941C95.9588 100.751 80.8712 110.145 65.3986 106.876C58.2233 105.36 52.2252 101.387 48.1687 96.0801Z" fill="url(#paint0_linear_2284_39300)"/>
</g>
<defs>
<linearGradient id="paint0_linear_2284_39300" x1="66.5561" y1="4.91212" x2="41.3986" y2="110.976" gradientUnits="userSpaceOnUse">
<stop stop-color="#F9D5DD"/>
<stop offset="1" stop-color="#F9EAEC"/>
</linearGradient>
<clipPath id="clip0_2284_39300">
<rect width="113" height="68" fill="white"/>
</clipPath>
</defs>
</svg>
