<svg width="113" height="68" viewBox="0 0 113 68" fill="none" xmlns="http://www.w3.org/2000/svg">
<g clip-path="url(#clip0_2284_39306)">
<path fill-rule="evenodd" clip-rule="evenodd" d="M23.9126 23.1752C25.2775 15.9868 32.2114 11.2659 39.3999 12.6308L93.5332 22.9094C100.722 24.2743 105.443 31.2082 104.078 38.3966C102.72 45.5486 95.849 50.2581 88.6997 48.9613C95.8263 50.3757 100.492 57.2755 99.1343 64.4272C97.9791 70.5114 92.8346 74.8279 86.9228 75.183C92.2928 77.6803 95.4971 83.582 94.3419 89.666C92.9769 96.8544 86.0431 101.575 78.8546 100.21L24.7213 89.9318C17.5328 88.5669 12.8119 81.633 14.1769 74.4446C15.3321 68.3605 20.4766 64.044 26.3884 63.6889C21.0183 61.1915 17.8141 55.2899 18.9693 49.2058C20.3273 42.0538 27.198 37.3444 34.3473 38.6411C27.2206 37.2268 22.5547 30.327 23.9126 23.1752Z" fill="url(#paint0_linear_2284_39306)"/>
</g>
<defs>
<linearGradient id="paint0_linear_2284_39306" x1="66.2287" y1="15.2393" x2="51.5837" y2="115.939" gradientUnits="userSpaceOnUse">
<stop stop-color="#FFDAAB"/>
<stop offset="1" stop-color="#FFEED4"/>
</linearGradient>
<clipPath id="clip0_2284_39306">
<rect width="113" height="68" fill="white"/>
</clipPath>
</defs>
</svg>
