<svg width="113" height="68" viewBox="0 0 113 68" fill="none" xmlns="http://www.w3.org/2000/svg">
<g clip-path="url(#clip0_2284_39315)">
<path fill-rule="evenodd" clip-rule="evenodd" d="M84.6947 32.9435C85.099 30.8143 87.1529 29.4159 89.2821 29.8202L104.476 32.7051C106.605 33.1094 108.003 35.1632 107.599 37.2925L96.0161 98.2946C95.6118 100.424 93.558 101.822 91.4287 101.418L76.2352 98.533C74.1059 98.1287 72.7076 96.0749 73.1119 93.9456L76.2173 77.5907L30.4077 68.8925L27.3022 85.248C26.8979 87.3772 24.844 88.7756 22.7147 88.3713L7.52125 85.4864C5.39198 85.0821 3.99361 83.0283 4.39791 80.899L15.9807 19.8969C16.385 17.7676 18.4389 16.3693 20.5682 16.7736L35.7617 19.6584C37.8909 20.0627 39.2893 22.1166 38.885 24.2459L35.7799 40.599L81.5895 49.2971L84.6947 32.9435Z" fill="url(#paint0_linear_2284_39315)"/>
</g>
<defs>
<linearGradient id="paint0_linear_2284_39315" x1="64.1068" y1="43.6927" x2="37.7086" y2="99.3879" gradientUnits="userSpaceOnUse">
<stop stop-color="#A9E5F5"/>
<stop offset="1" stop-color="#E0F2FF"/>
</linearGradient>
<clipPath id="clip0_2284_39315">
<rect width="113" height="68" fill="white"/>
</clipPath>
</defs>
</svg>
