<svg width="32" height="32" viewBox="0 0 32 32" fill="none" xmlns="http://www.w3.org/2000/svg">
<rect width="32" height="32" rx="16" fill="#F8F8F8"/>
<path fill-rule="evenodd" clip-rule="evenodd" d="M19.0824 7.77539C18.7019 7.77539 18.3935 8.08383 18.3935 8.46431V12.6287H13.259C12.8786 12.6287 12.5701 12.9371 12.5701 13.3176V17.481H8.40571C8.02524 17.481 7.7168 17.7894 7.7168 18.1699V23.5861C7.7168 23.9666 8.02523 24.2751 8.40571 24.2751H23.5279C23.9083 24.2751 24.2168 23.9666 24.2168 23.5861V22.6329C24.2169 22.6272 24.217 22.6215 24.217 22.6158V21.6614C24.2171 21.6562 24.2172 21.6509 24.2172 21.6456V13.3176C24.2172 13.3124 24.2171 13.3071 24.217 13.3018V8.46431C24.217 8.08383 23.9085 7.77539 23.5281 7.77539H19.0824Z" fill="#84E0A3"/>
<path d="M18.3935 12.6287V13.0412H18.806V12.6287H18.3935ZM12.5701 17.481V17.8935H12.9826V17.481H12.5701ZM24.2168 22.6329L23.8043 22.6228V22.6329H24.2168ZM24.217 21.6614L23.8045 21.6521V21.6614H24.217ZM24.217 13.3018H23.8044L23.8046 13.3111L24.217 13.3018ZM18.806 8.46431C18.806 8.31165 18.9297 8.18789 19.0824 8.18789V7.36289C18.4741 7.36289 17.981 7.85601 17.981 8.46431H18.806ZM18.806 12.6287V8.46431H17.981V12.6287H18.806ZM18.3935 12.2162H13.259V13.0412H18.3935V12.2162ZM13.259 12.2162C12.6507 12.2162 12.1576 12.7093 12.1576 13.3176H12.9826C12.9826 13.165 13.1064 13.0412 13.259 13.0412V12.2162ZM12.1576 13.3176V17.481H12.9826V13.3176H12.1576ZM12.5701 17.0685H8.40571V17.8935H12.5701V17.0685ZM8.40571 17.0685C7.79742 17.0685 7.3043 17.5616 7.3043 18.1699H8.1293C8.1293 18.0172 8.25305 17.8935 8.40571 17.8935V17.0685ZM7.3043 18.1699V23.5861H8.1293V18.1699H7.3043ZM7.3043 23.5861C7.3043 24.1944 7.79742 24.6876 8.40571 24.6876V23.8626C8.25305 23.8626 8.1293 23.7388 8.1293 23.5861H7.3043ZM8.40571 24.6876H23.5279V23.8626H8.40571V24.6876ZM23.5279 24.6876C24.1361 24.6876 24.6293 24.1944 24.6293 23.5861H23.8043C23.8043 23.7388 23.6805 23.8626 23.5279 23.8626V24.6876ZM24.6293 23.5861V22.6329H23.8043V23.5861H24.6293ZM23.8045 22.6158C23.8045 22.6182 23.8044 22.6206 23.8044 22.6228L24.6291 22.643C24.6294 22.6339 24.6295 22.6249 24.6295 22.6158H23.8045ZM23.8045 21.6614V22.6158H24.6295V21.6614H23.8045ZM24.6294 21.6707C24.6296 21.6624 24.6297 21.654 24.6297 21.6456H23.8047C23.8047 21.6478 23.8046 21.65 23.8046 21.6521L24.6294 21.6707ZM24.6297 21.6456V13.3176H23.8047V21.6456H24.6297ZM24.6297 13.3176C24.6297 13.3093 24.6296 13.3009 24.6294 13.2925L23.8046 13.3111C23.8046 13.3133 23.8047 13.3154 23.8047 13.3176H24.6297ZM23.8045 8.46431V13.3018H24.6295V8.46431H23.8045ZM23.5281 8.18789C23.6807 8.18789 23.8045 8.31165 23.8045 8.46431H24.6295C24.6295 7.85601 24.1364 7.36289 23.5281 7.36289V8.18789ZM19.0824 8.18789H23.5281V7.36289H19.0824V8.18789Z" fill="#6FC28B"/>
</svg>
