<svg width="32" height="32" viewBox="0 0 32 32" fill="none" xmlns="http://www.w3.org/2000/svg">
<rect width="32" height="32" rx="16" fill="#F8F8F8"/>
<path fill-rule="evenodd" clip-rule="evenodd" d="M7.20117 9.99454C7.20117 9.5855 7.53276 9.25391 7.94181 9.25391H10.8605C11.2696 9.25391 11.6012 9.5855 11.6012 9.99454V13.1361H20.4012V9.99454C20.4012 9.5855 20.7328 9.25391 21.1418 9.25391H24.0605C24.4696 9.25391 24.8012 9.5855 24.8012 9.99454V21.7133C24.8012 22.1223 24.4696 22.4539 24.0605 22.4539H21.1418C20.7328 22.4539 20.4012 22.1223 20.4012 21.7133V18.5714H11.6012V21.7133C11.6012 22.1223 11.2696 22.4539 10.8605 22.4539H7.94181C7.53276 22.4539 7.20117 22.1223 7.20117 21.7133V9.99454Z" fill="#80CAFF"/>
<path d="M11.6012 13.1361H11.1887V13.5486H11.6012V13.1361ZM20.4012 13.1361V13.5486H20.8137V13.1361H20.4012ZM20.4012 18.5714H20.8137V18.1589H20.4012V18.5714ZM11.6012 18.5714V18.1589H11.1887V18.5714H11.6012ZM7.94181 8.84141C7.30495 8.84141 6.78867 9.35768 6.78867 9.99454H7.61367C7.61367 9.81332 7.76058 9.66641 7.94181 9.66641V8.84141ZM10.8605 8.84141H7.94181V9.66641H10.8605V8.84141ZM12.0137 9.99454C12.0137 9.35768 11.4974 8.84141 10.8605 8.84141V9.66641C11.0418 9.66641 11.1887 9.81332 11.1887 9.99454H12.0137ZM12.0137 13.1361V9.99454H11.1887V13.1361H12.0137ZM11.6012 13.5486H20.4012V12.7236H11.6012V13.5486ZM19.9887 9.99454V13.1361H20.8137V9.99454H19.9887ZM21.1418 8.84141C20.5049 8.84141 19.9887 9.35768 19.9887 9.99454H20.8137C20.8137 9.81332 20.9606 9.66641 21.1418 9.66641V8.84141ZM24.0605 8.84141H21.1418V9.66641H24.0605V8.84141ZM25.2137 9.99454C25.2137 9.35768 24.6974 8.84141 24.0605 8.84141V9.66641C24.2418 9.66641 24.3887 9.81332 24.3887 9.99454H25.2137ZM25.2137 21.7133V9.99454H24.3887V21.7133H25.2137ZM24.0605 22.8664C24.6974 22.8664 25.2137 22.3501 25.2137 21.7133H24.3887C24.3887 21.8945 24.2418 22.0414 24.0605 22.0414V22.8664ZM21.1418 22.8664H24.0605V22.0414H21.1418V22.8664ZM19.9887 21.7133C19.9887 22.3501 20.5049 22.8664 21.1418 22.8664V22.0414C20.9606 22.0414 20.8137 21.8945 20.8137 21.7133H19.9887ZM19.9887 18.5714V21.7133H20.8137V18.5714H19.9887ZM20.4012 18.1589H11.6012V18.9839H20.4012V18.1589ZM12.0137 21.7133V18.5714H11.1887V21.7133H12.0137ZM10.8605 22.8664C11.4974 22.8664 12.0137 22.3501 12.0137 21.7133H11.1887C11.1887 21.8945 11.0418 22.0414 10.8605 22.0414V22.8664ZM7.94181 22.8664H10.8605V22.0414H7.94181V22.8664ZM6.78867 21.7133C6.78867 22.3501 7.30495 22.8664 7.94181 22.8664V22.0414C7.76058 22.0414 7.61367 21.8945 7.61367 21.7133H6.78867ZM6.78867 9.99454V21.7133H7.61367V9.99454H6.78867Z" fill="#6EAFDD"/>
</svg>
