<svg width="40" height="40" viewBox="0 0 40 40" fill="none" xmlns="http://www.w3.org/2000/svg">
<g clip-path="url(#clip0_3598_58880)">
<path d="M32.0067 19.5938C31.6793 20.0167 31.6794 20.6074 32.0069 21.0302C35.0903 25.01 31.8087 30.8038 26.4633 30.1898C25.9541 30.1313 25.4659 30.4102 25.2578 30.8786C23.1804 35.5533 16.2684 35.5533 14.1911 30.8786C13.9829 30.4102 13.4947 30.1313 12.9855 30.1898C7.64059 30.8037 4.35911 25.0112 7.4421 21.0299C7.76949 20.6072 7.76945 20.0164 7.442 19.5937C4.35836 15.6128 7.64017 9.82002 12.9855 10.434C13.4947 10.4925 13.9829 10.2136 14.1911 9.74518C16.2684 5.07054 23.1804 5.07054 25.2578 9.74518C25.4659 10.2136 25.9541 10.4925 26.4633 10.434C31.8082 9.82007 35.0897 15.6125 32.0067 19.5938Z" fill="#B5FCFF" stroke="#C1C0FF" stroke-width="2.34558" stroke-linejoin="round"/>
<path d="M26.6446 19.3985C26.327 19.8175 26.3271 20.3966 26.6447 20.8156C28.2957 22.9927 26.5277 26.1336 23.7004 25.8018C23.1869 25.7415 22.6945 26.0247 22.4883 26.4988C21.3832 29.0395 17.7126 29.0395 16.6075 26.4988C16.4013 26.0247 15.9089 25.7415 15.3954 25.8018C12.5686 26.1336 10.8003 22.9935 12.4512 20.8153C12.7688 20.3964 12.7687 19.8173 12.4511 19.3984C10.8 17.2205 12.5682 14.0802 15.3954 14.412C15.9089 14.4723 16.4013 14.1892 16.6075 13.715C17.7126 11.1743 21.3832 11.1743 22.4883 13.715C22.6945 14.1892 23.1869 14.4723 23.7004 14.412C26.5272 14.0803 28.2955 17.2203 26.6446 19.3985Z" fill="#FFF3BF" stroke="#FCB8C4" stroke-width="2.34558" stroke-linejoin="round"/>
</g>
<defs>
<clipPath id="clip0_3598_58880">
<rect width="29.3198" height="30.4926" fill="white" transform="translate(5.06641 5.06641)"/>
</clipPath>
</defs>
</svg>
