<svg width="32" height="32" viewBox="0 0 32 32" fill="none" xmlns="http://www.w3.org/2000/svg">
<rect width="32" height="32" rx="16" fill="#F8F8F8"/>
<path fill-rule="evenodd" clip-rule="evenodd" d="M16.6479 9.27939C16.3986 9.5709 15.6037 9.5709 15.3544 9.27939C14.6318 8.43452 13.2838 7.58118 11.0363 7.77883C7.67533 8.07438 7.08967 11.5083 7.21698 12.9861C7.21699 14.2176 7.59895 16.2761 9.89049 18.8972C11.2701 20.4752 13.4129 21.9264 14.8675 22.9115C15.3308 23.2252 15.7243 23.4917 16.0011 23.6999C16.0011 23.6999 16.0011 23.6999 16.0011 23.7V23.7C16.0011 23.7 16.0011 23.7 16.0012 23.7C16.0012 23.7 16.0012 23.7 16.0012 23.7C16.0012 23.7 16.0012 23.7 16.0012 23.7V23.7C16.0012 23.6999 16.0012 23.6999 16.0012 23.6999C16.278 23.4917 16.6715 23.2252 17.1348 22.9115C18.5895 21.9264 20.7323 20.4752 22.1119 18.8972C24.4034 16.2761 24.7853 14.2176 24.7854 12.9861C24.9127 11.5083 24.327 8.07438 20.9661 7.77883C18.7186 7.58118 17.3706 8.43452 16.6479 9.27939Z" fill="#FF7086"/>
<path d="M11.0363 7.77883L11.0001 7.36791L11.0363 7.77883ZM7.21698 12.9861L7.62948 12.9861L7.62948 12.9684L7.62796 12.9507L7.21698 12.9861ZM9.89049 18.8972L10.201 18.6257L9.89049 18.8972ZM14.8675 22.9115L14.6362 23.253L14.8675 22.9115ZM17.1348 22.9115L17.3661 23.253L17.1348 22.9115ZM22.1119 18.8972L21.8013 18.6257L22.1119 18.8972ZM24.7854 12.9861L24.3744 12.9507L24.3729 12.9684V12.9861L24.7854 12.9861ZM20.9661 7.77883L20.93 8.18974L20.9661 7.77883ZM16.0012 23.6999L16.2492 24.0296L16.0012 23.6999ZM16.0011 23.6999L15.7531 24.0296L16.0011 23.6999ZM15.3544 9.27939L15.0409 9.54751L15.3544 9.27939ZM16.6479 9.27939L16.3345 9.01127L16.6479 9.27939ZM11.0724 8.18974C13.1835 8.00409 14.4025 8.8011 15.0409 9.54751L15.6679 9.01127C14.8611 8.06795 13.3841 7.15827 11.0001 7.36791L11.0724 8.18974ZM7.62796 12.9507C7.56955 12.2727 7.67708 11.1249 8.18604 10.1265C8.68413 9.14935 9.55806 8.32291 11.0724 8.18974L11.0001 7.36791C9.15353 7.5303 8.05416 8.5686 7.45103 9.75179C6.85875 10.9137 6.7371 12.2217 6.806 13.0215L7.62796 12.9507ZM10.201 18.6257C7.97253 16.0767 7.62949 14.1137 7.62948 12.9861L6.80448 12.9861C6.8045 14.3215 7.22536 16.4755 9.57994 19.1687L10.201 18.6257ZM15.0988 22.5699C13.6333 21.5774 11.5388 20.1559 10.201 18.6257L9.57994 19.1687C11.0013 20.7945 13.1925 22.2753 14.6362 23.253L15.0988 22.5699ZM16.2491 23.3703C15.9622 23.1544 15.5585 22.8812 15.0988 22.5699L14.6362 23.253C15.1032 23.5692 15.4865 23.829 15.7531 24.0296L16.2491 23.3703ZM15.5886 23.7V23.7H16.4136V23.7H15.5886ZM15.5887 23.7V23.7H16.4137V23.7H15.5887ZM16.2492 24.0296C16.5158 23.829 16.8991 23.5692 17.3661 23.253L16.9035 22.5699C16.4439 22.8812 16.0402 23.1544 15.7532 23.3703L16.2492 24.0296ZM17.3661 23.253C18.8099 22.2753 21.0011 20.7945 22.4224 19.1687L21.8013 18.6257C20.4635 20.1559 18.3691 21.5774 16.9035 22.5699L17.3661 23.253ZM22.4224 19.1687C24.777 16.4755 25.1978 14.3215 25.1979 12.9861L24.3729 12.9861C24.3729 14.1137 24.0298 16.0767 21.8013 18.6257L22.4224 19.1687ZM25.1963 13.0215C25.2652 12.2217 25.1436 10.9137 24.5513 9.75179C23.9482 8.5686 22.8488 7.5303 21.0022 7.36791L20.93 8.18974C22.4443 8.32291 23.3182 9.14935 23.8163 10.1265C24.3253 11.1249 24.4328 12.2727 24.3744 12.9507L25.1963 13.0215ZM21.0022 7.36791C18.6183 7.15827 17.1413 8.06795 16.3345 9.01127L16.9614 9.54751C17.5998 8.8011 18.8189 8.00409 20.93 8.18974L21.0022 7.36791ZM16.4137 23.7C16.4137 23.827 16.3548 23.9501 16.2492 24.0296L15.7532 23.3703C15.6476 23.4498 15.5887 23.5729 15.5887 23.7H16.4137ZM15.7524 24.029C16.0208 24.2319 16.4137 24.0449 16.4137 23.7H15.5887C15.5887 23.3551 15.9816 23.1681 16.25 23.3709L15.7524 24.029ZM16.2462 24.0319C16.1008 24.1392 15.8999 24.1405 15.7524 24.029L16.25 23.3709C16.1025 23.2595 15.9015 23.2608 15.7562 23.3681L16.2462 24.0319ZM15.7531 24.0296C15.6475 23.9501 15.5886 23.827 15.5886 23.7H16.4136C16.4136 23.5729 16.3547 23.4498 16.2491 23.3703L15.7531 24.0296ZM15.5886 23.7C15.5886 24.0507 15.9838 24.2256 16.2462 24.0319L15.7562 23.3681C16.0185 23.1744 16.4136 23.3492 16.4136 23.7H15.5886ZM15.0409 9.54751C15.1704 9.69889 15.3449 9.78615 15.5005 9.83612C15.6609 9.88761 15.8348 9.91053 16.0012 9.91053C16.1675 9.91053 16.3414 9.88761 16.5018 9.83612C16.6574 9.78615 16.8319 9.69889 16.9614 9.54751L16.3345 9.01127C16.3393 9.00565 16.321 9.0277 16.2496 9.05062C16.183 9.072 16.0959 9.08553 16.0012 9.08553C15.9065 9.08553 15.8193 9.072 15.7528 9.05062C15.6814 9.0277 15.6631 9.00565 15.6679 9.01127L15.0409 9.54751Z" fill="#F85770"/>
</svg>
