<svg width="32" height="32" viewBox="0 0 32 32" fill="none" xmlns="http://www.w3.org/2000/svg">
<rect width="32" height="32" rx="16" fill="#F8F8F8"/>
<path fill-rule="evenodd" clip-rule="evenodd" d="M17.4682 7.20117H14.5349V12.4608L10.7417 8.66762L8.66748 10.7418L12.4598 14.5341H7.20117L7.20117 17.4675H12.3134L8.6683 21.1126L10.7425 23.1867L14.5349 19.3944V24.8012H17.4682V19.5425L21.1126 23.1869L23.1867 21.1127L19.5415 17.4675H24.8012V14.5341H19.3951L23.1876 10.7417L21.1134 8.66748L17.4682 12.3127V7.20117Z" fill="#FFDC43"/>
<path d="M14.5349 7.20117V6.78867C14.307 6.78867 14.1224 6.97335 14.1224 7.20117H14.5349ZM17.4682 7.20117H17.8807C17.8807 6.97335 17.696 6.78867 17.4682 6.78867V7.20117ZM14.5349 12.4608L14.2432 12.7525C14.3612 12.8705 14.5386 12.9058 14.6927 12.8419C14.8469 12.7781 14.9474 12.6277 14.9474 12.4608H14.5349ZM10.7417 8.66762L11.0333 8.37594C10.956 8.29858 10.8511 8.25512 10.7417 8.25512C10.6323 8.25512 10.5273 8.29858 10.45 8.37594L10.7417 8.66762ZM8.66748 10.7418L8.3758 10.4501C8.21471 10.6112 8.21471 10.8724 8.3758 11.0335L8.66748 10.7418ZM12.4598 14.5341V14.9466C12.6267 14.9466 12.7771 14.8461 12.8409 14.692C12.9048 14.5379 12.8695 14.3604 12.7515 14.2425L12.4598 14.5341ZM7.20117 14.5341V14.1216C7.09177 14.1216 6.98685 14.1651 6.90949 14.2425C6.83213 14.3198 6.78867 14.4247 6.78867 14.5341H7.20117ZM7.20117 17.4675H6.78867C6.78867 17.6953 6.97335 17.88 7.20117 17.88V17.4675ZM12.3134 17.4675L12.6051 17.7592C12.723 17.6412 12.7583 17.4638 12.6945 17.3096C12.6306 17.1555 12.4802 17.055 12.3134 17.055V17.4675ZM8.6683 21.1126L8.37662 20.8209C8.29926 20.8982 8.2558 21.0032 8.2558 21.1126C8.2558 21.222 8.29926 21.3269 8.37662 21.4042L8.6683 21.1126ZM10.7425 23.1867L10.4508 23.4784C10.5282 23.5558 10.6331 23.5992 10.7425 23.5992C10.8519 23.5992 10.9568 23.5558 11.0342 23.4784L10.7425 23.1867ZM14.5349 19.3944H14.9474C14.9474 19.2275 14.8469 19.0771 14.6927 19.0133C14.5386 18.9494 14.3612 18.9847 14.2432 19.1027L14.5349 19.3944ZM14.5349 24.8012H14.1224C14.1224 25.029 14.307 25.2137 14.5349 25.2137V24.8012ZM17.4682 24.8012V25.2137C17.696 25.2137 17.8807 25.029 17.8807 24.8012H17.4682ZM17.4682 19.5425L17.7599 19.2508C17.6419 19.1329 17.4645 19.0976 17.3103 19.1614C17.1562 19.2253 17.0557 19.3757 17.0557 19.5425H17.4682ZM21.1126 23.1869L20.8209 23.4786C20.982 23.6396 21.2432 23.6396 21.4042 23.4786L21.1126 23.1869ZM23.1867 21.1127L23.4784 21.4044C23.6395 21.2433 23.6395 20.9821 23.4784 20.821L23.1867 21.1127ZM19.5415 17.4675V17.055C19.3747 17.055 19.2243 17.1555 19.1604 17.3096C19.0966 17.4638 19.1319 17.6412 19.2498 17.7592L19.5415 17.4675ZM24.8012 17.4675V17.88C25.029 17.88 25.2137 17.6953 25.2137 17.4675H24.8012ZM24.8012 14.5341H25.2137C25.2137 14.3063 25.029 14.1216 24.8012 14.1216V14.5341ZM19.3951 14.5341L19.1034 14.2425C18.9854 14.3604 18.9501 14.5379 19.014 14.692C19.0778 14.8461 19.2282 14.9466 19.3951 14.9466V14.5341ZM23.1876 10.7417L23.4792 11.0333C23.5566 10.956 23.6001 10.8511 23.6001 10.7417C23.6001 10.6323 23.5566 10.5273 23.4792 10.45L23.1876 10.7417ZM21.1134 8.66748L21.4051 8.3758C21.3277 8.29844 21.2228 8.25498 21.1134 8.25498C21.004 8.25498 20.8991 8.29844 20.8217 8.3758L21.1134 8.66748ZM17.4682 12.3127H17.0557C17.0557 12.4795 17.1562 12.6299 17.3103 12.6938C17.4645 12.7576 17.6419 12.7223 17.7599 12.6043L17.4682 12.3127ZM14.5349 7.61367H17.4682V6.78867H14.5349V7.61367ZM14.9474 12.4608V7.20117H14.1224V12.4608H14.9474ZM10.45 8.9593L14.2432 12.7525L14.8265 12.1691L11.0333 8.37594L10.45 8.9593ZM8.95916 11.0335L11.0333 8.9593L10.45 8.37594L8.3758 10.4501L8.95916 11.0335ZM12.7515 14.2425L8.95916 10.4501L8.3758 11.0335L12.1681 14.8258L12.7515 14.2425ZM7.20117 14.9466H12.4598V14.1216H7.20117V14.9466ZM7.61367 17.4675L7.61367 14.5341L6.78867 14.5341L6.78867 17.4675H7.61367ZM12.3134 17.055H7.20117V17.88H12.3134V17.055ZM8.95998 21.4042L12.6051 17.7592L12.0217 17.1758L8.37662 20.8209L8.95998 21.4042ZM11.0342 22.8951L8.95998 20.8209L8.37662 21.4042L10.4508 23.4784L11.0342 22.8951ZM14.2432 19.1027L10.4508 22.8951L11.0342 23.4784L14.8265 19.686L14.2432 19.1027ZM14.9474 24.8012V19.3944H14.1224V24.8012H14.9474ZM17.4682 24.3887H14.5349V25.2137H17.4682V24.3887ZM17.0557 19.5425V24.8012H17.8807V19.5425H17.0557ZM21.4042 22.8952L17.7599 19.2508L17.1765 19.8342L20.8209 23.4786L21.4042 22.8952ZM22.8951 20.821L20.8209 22.8952L21.4042 23.4786L23.4784 21.4044L22.8951 20.821ZM19.2498 17.7592L22.8951 21.4044L23.4784 20.821L19.8332 17.1758L19.2498 17.7592ZM24.8012 17.055H19.5415V17.88H24.8012V17.055ZM24.3887 14.5341V17.4675H25.2137V14.5341H24.3887ZM19.3951 14.9466H24.8012V14.1216H19.3951V14.9466ZM22.8959 10.45L19.1034 14.2425L19.6868 14.8258L23.4792 11.0333L22.8959 10.45ZM20.8217 8.95916L22.8959 11.0333L23.4792 10.45L21.4051 8.3758L20.8217 8.95916ZM17.7599 12.6043L21.4051 8.95916L20.8217 8.3758L17.1765 12.021L17.7599 12.6043ZM17.0557 7.20117V12.3127H17.8807V7.20117H17.0557Z" fill="#F0CA23"/>
</svg>
