<svg width="18" height="18" viewBox="0 0 18 18" fill="none" xmlns="http://www.w3.org/2000/svg">
<path d="M12.343 5.59203C12.5014 5.44115 12.7123 5.35774 12.9311 5.3594C13.1499 5.36105 13.3595 5.44765 13.5157 5.6009C13.6719 5.75416 13.7624 5.96209 13.7682 6.18082C13.774 6.39956 13.6946 6.61198 13.5467 6.77328L9.05795 12.387C8.98077 12.4702 8.88761 12.5369 8.78405 12.5832C8.68049 12.6295 8.56866 12.6545 8.45524 12.6566C8.34181 12.6587 8.22913 12.6379 8.12393 12.5954C8.01873 12.553 7.92316 12.4897 7.84295 12.4095L4.8662 9.43278C4.78331 9.35553 4.71682 9.26238 4.6707 9.15888C4.62458 9.05538 4.59979 8.94366 4.59779 8.83037C4.59579 8.71708 4.61663 8.60454 4.65907 8.49948C4.7015 8.39442 4.76466 8.29898 4.84479 8.21886C4.92491 8.13874 5.02034 8.07558 5.12541 8.03314C5.23047 7.9907 5.343 7.96986 5.45629 7.97186C5.56958 7.97386 5.68131 7.99866 5.78481 8.04477C5.88831 8.09089 5.98146 8.15738 6.0587 8.24028L8.41445 10.5949L12.3216 5.61678C12.3286 5.60812 12.335 5.59985 12.343 5.59203Z" fill="white"/>
</svg>
