<svg width="33" height="32" viewBox="0 0 33 32" fill="none" xmlns="http://www.w3.org/2000/svg">
<circle cx="16.6406" cy="16" r="16" fill="#4A4A4A"/>
<path d="M15.9655 12.8374L20.0376 16.91L15.9062 21.0419C15.715 21.2331 15.4626 21.351 15.1932 21.3748L15.0918 21.3788H12.0778C11.9345 21.3788 11.7962 21.3259 11.6895 21.2303C11.5828 21.1346 11.5152 21.0029 11.4995 20.8605L11.4961 20.7971V17.7831C11.4962 17.5127 11.5914 17.2509 11.7651 17.0436L11.8342 16.9687L15.9655 12.8374ZM17.7741 11.0288C17.9779 10.825 18.2508 10.705 18.5388 10.6925C18.8268 10.68 19.109 10.776 19.3297 10.9615L19.4029 11.0288L21.8467 13.4726C22.0504 13.6764 22.1703 13.9492 22.1828 14.2371C22.1952 14.525 22.0994 14.8071 21.9141 15.0277L21.8467 15.1015L20.8526 16.0956L16.7805 12.0229L17.7741 11.0288Z" fill="white"/>
</svg>
