<svg width="32" height="32" viewBox="0 0 32 32" fill="none" xmlns="http://www.w3.org/2000/svg">
<rect width="32" height="32" rx="16" fill="#F8F8F8"/>
<path d="M8.30078 10.8012C8.30078 9.42024 9.42024 8.30078 10.8012 8.30078H21.2004C22.5813 8.30078 23.7008 9.42024 23.7008 10.8012C23.7008 12.1758 22.5916 13.2913 21.2194 13.3015C22.5916 13.3117 23.7008 14.4272 23.7008 15.8018C23.7008 16.9706 22.8989 17.9521 21.8152 18.226C22.8989 18.5 23.7008 19.4815 23.7008 20.6503C23.7008 22.0312 22.5813 23.1507 21.2004 23.1507H10.8012C9.42024 23.1507 8.30078 22.0312 8.30078 20.6503C8.30078 19.4815 9.1027 18.5 10.1863 18.226C9.1027 17.9521 8.30078 16.9706 8.30078 15.8018C8.30078 14.4272 9.40999 13.3117 10.7822 13.3015C9.40999 13.2913 8.30078 12.1758 8.30078 10.8012Z" fill="#FFB74B" stroke="#E59E34" stroke-width="0.825" stroke-linejoin="round"/>
</svg>
