<svg width="19" height="19" viewBox="0 0 19 19" fill="none" xmlns="http://www.w3.org/2000/svg">
<path d="M9.49792 1.58398C8.02818 1.58398 6.61863 2.16784 5.57937 3.2071C4.54011 4.24637 3.95625 5.65591 3.95625 7.12565V9.91865C3.95637 10.0415 3.92791 10.1626 3.87313 10.2725L2.51384 12.9903C2.44744 13.1231 2.41608 13.2706 2.42275 13.4189C2.42943 13.5673 2.4739 13.7114 2.55195 13.8377C2.63 13.964 2.73904 14.0682 2.86872 14.1405C2.99839 14.2127 3.14438 14.2507 3.29284 14.2507H15.703C15.8515 14.2507 15.9975 14.2127 16.1271 14.1405C16.2568 14.0682 16.3658 13.964 16.4439 13.8377C16.5219 13.7114 16.5664 13.5673 16.5731 13.4189C16.5798 13.2706 16.5484 13.1231 16.482 12.9903L15.1235 10.2725C15.0685 10.1627 15.0397 10.0415 15.0396 9.91865V7.12565C15.0396 5.65591 14.4557 4.24637 13.4165 3.2071C12.3772 2.16784 10.9677 1.58398 9.49792 1.58398ZM9.49792 16.6257C9.00657 16.6259 8.52724 16.4738 8.12598 16.1902C7.72472 15.9066 7.42129 15.5056 7.2575 15.0423H11.7383C11.5746 15.5056 11.2711 15.9066 10.8699 16.1902C10.4686 16.4738 9.98927 16.6259 9.49792 16.6257Z" fill="#9FA4A9"/>
</svg>
