<svg width="32" height="32" viewBox="0 0 32 32" fill="none" xmlns="http://www.w3.org/2000/svg">
<rect width="32" height="32" rx="16" fill="#F8F8F8"/>
<path fill-rule="evenodd" clip-rule="evenodd" d="M12.7 24.2501C13.9678 24.2501 15.1242 23.7962 16 23.0497C16.8757 23.7962 18.0322 24.2501 19.3 24.2501C22.0338 24.2501 24.25 22.1395 24.25 19.5359C24.25 18.1278 23.6018 16.8639 22.5741 16.0001C23.6018 15.1362 24.25 13.8724 24.25 12.4643C24.25 9.86066 22.0338 7.75 19.3 7.75C18.0322 7.75 16.8757 8.20392 16 8.95042C15.1242 8.20392 13.9678 7.75 12.7 7.75C9.96618 7.75 7.75 9.86066 7.75 12.4643C7.75 13.8724 8.39818 15.1362 9.42588 16.0001C8.39818 16.8639 7.75 18.1278 7.75 19.5359C7.75 22.1395 9.96618 24.2501 12.7 24.2501Z" fill="#FFAAB2"/>
<path d="M16 23.0497L16.2676 22.7358C16.1134 22.6044 15.8866 22.6044 15.7324 22.7358L16 23.0497ZM22.5741 16.0001L22.3087 15.6843C22.2154 15.7627 22.1616 15.8783 22.1616 16.0001C22.1616 16.1219 22.2154 16.2375 22.3087 16.3158L22.5741 16.0001ZM16 8.95042L15.7324 9.26434C15.8866 9.39577 16.1134 9.39577 16.2676 9.26434L16 8.95042ZM9.42588 16.0001L9.6913 16.3158C9.78454 16.2375 9.83838 16.1219 9.83838 16.0001C9.83838 15.8783 9.78454 15.7627 9.6913 15.6843L9.42588 16.0001ZM15.7324 22.7358C14.9302 23.4196 13.8682 23.8376 12.7 23.8376V24.6626C14.0673 24.6626 15.3183 24.1728 16.2676 23.3637L15.7324 22.7358ZM19.3 23.8376C18.1317 23.8376 17.0698 23.4196 16.2676 22.7358L15.7324 23.3637C16.6816 24.1728 17.9326 24.6626 19.3 24.6626V23.8376ZM23.8375 19.5359C23.8375 21.8929 21.8252 23.8376 19.3 23.8376V24.6626C22.2424 24.6626 24.6625 22.386 24.6625 19.5359H23.8375ZM22.3087 16.3158C23.2502 17.1073 23.8375 18.2586 23.8375 19.5359H24.6625C24.6625 17.997 23.9533 16.6205 22.8395 15.6843L22.3087 16.3158ZM23.8375 12.4643C23.8375 13.7416 23.2502 14.8929 22.3087 15.6843L22.8395 16.3158C23.9533 15.3796 24.6625 14.0031 24.6625 12.4643H23.8375ZM19.3 8.1625C21.8252 8.1625 23.8375 10.1072 23.8375 12.4643H24.6625C24.6625 9.61411 22.2424 7.3375 19.3 7.3375V8.1625ZM16.2676 9.26434C17.0698 8.58051 18.1317 8.1625 19.3 8.1625V7.3375C17.9326 7.3375 16.6816 7.82732 15.7324 8.63649L16.2676 9.26434ZM12.7 8.1625C13.8682 8.1625 14.9302 8.58051 15.7324 9.26434L16.2676 8.63649C15.3183 7.82732 14.0673 7.3375 12.7 7.3375V8.1625ZM8.1625 12.4643C8.1625 10.1072 10.1748 8.1625 12.7 8.1625V7.3375C9.75756 7.3375 7.3375 9.61411 7.3375 12.4643H8.1625ZM9.6913 15.6843C8.74975 14.8929 8.1625 13.7416 8.1625 12.4643H7.3375C7.3375 14.0031 8.04661 15.3796 9.16046 16.3158L9.6913 15.6843ZM8.1625 19.5359C8.1625 18.2586 8.74975 17.1073 9.6913 16.3158L9.16046 15.6843C8.04661 16.6205 7.3375 17.997 7.3375 19.5359H8.1625ZM12.7 23.8376C10.1748 23.8376 8.1625 21.8929 8.1625 19.5359H7.3375C7.3375 22.386 9.75756 24.6626 12.7 24.6626V23.8376Z" fill="#E98E97"/>
</svg>
