<svg width="40" height="40" viewBox="0 0 40 40" fill="none" xmlns="http://www.w3.org/2000/svg">
<g clip-path="url(#clip0_3598_58876)">
<path d="M32.0087 19.5938C31.6812 20.0167 31.6813 20.6074 32.0089 21.0302C35.0923 25.01 31.8107 30.8038 26.4653 30.1898C25.9561 30.1313 25.4679 30.4102 25.2597 30.8786C23.1823 35.5533 16.2704 35.5533 14.193 30.8786C13.9849 30.4102 13.4967 30.1313 12.9875 30.1898C7.64254 30.8037 4.36106 25.0112 7.44405 21.0299C7.77145 20.6072 7.7714 20.0164 7.44395 19.5937C4.36032 15.6128 7.64213 9.82002 12.9875 10.434C13.4967 10.4925 13.9849 10.2136 14.193 9.74518C16.2704 5.07054 23.1823 5.07054 25.2597 9.74518C25.4679 10.2136 25.9561 10.4925 26.4653 10.434C31.8102 9.82007 35.0917 15.6125 32.0087 19.5938Z" fill="white" stroke="#C0C2C6" stroke-width="2.34558" stroke-linejoin="round"/>
</g>
<defs>
<clipPath id="clip0_3598_58876">
<rect width="32" height="32" fill="white" transform="translate(4 4)"/>
</clipPath>
</defs>
</svg>
