<svg width="113" height="68" viewBox="0 0 113 68" fill="none" xmlns="http://www.w3.org/2000/svg">
<g clip-path="url(#clip0_2284_39312)">
<path fill-rule="evenodd" clip-rule="evenodd" d="M80.0201 3.36407C78.0395 2.988 76.1291 4.28873 75.753 6.26931L71.6373 27.9453L44.9104 22.8705C42.9298 22.4944 41.0194 23.7952 40.6433 25.7757L36.5275 47.452L14.8521 43.3363C12.8716 42.9603 10.9611 44.261 10.585 46.2416L5.23159 74.436C4.85552 76.4166 6.15625 78.3271 8.13683 78.7031L86.8554 93.6499C88.836 94.026 90.7464 92.7253 91.1225 90.7447L96.476 62.5502C96.4798 62.5301 96.4834 62.51 96.4869 62.4899L101.272 37.2877C101.279 37.2538 101.285 37.22 101.29 37.1862L106.067 12.0253C106.444 10.0447 105.143 8.13427 103.162 7.7582L80.0201 3.36407Z" fill="url(#paint0_linear_2284_39312)"/>
</g>
<defs>
<linearGradient id="paint0_linear_2284_39312" x1="70" y1="16.0002" x2="43.3658" y2="105.46" gradientUnits="userSpaceOnUse">
<stop stop-color="#A7F1C5"/>
<stop offset="1" stop-color="#DAF3DE"/>
</linearGradient>
<clipPath id="clip0_2284_39312">
<rect width="113" height="68" fill="white"/>
</clipPath>
</defs>
</svg>
